<?xml version="1.0" encoding="utf-8" ?>
<svg xmlns="http://www.w3.org/2000/svg" xmlns:xlink="http://www.w3.org/1999/xlink" width="1024" height="568">
	<clipPath id="cl_3">
		<rect width="1024" height="568"/>
	</clipPath>
	<g clip-path="url(#cl_3)">
		
		<path fill="#6083C5" transform="translate(0 -456)" d="M101.05 733.686C119.13 734.332 137.334 733.935 155.428 733.942L250.413 733.973L390.448 733.943C409.686 733.93 428.92 734.374 448.147 734.08C449.793 738.639 448.429 774.924 448.38 782.378L448.035 882.282C433.127 881.419 417.916 881.89 402.98 881.908L328.489 882.03L318.875 882.021C315.079 897.394 310.675 906.551 299.175 917.647C296.989 918.524 294.673 920.391 292.646 921.671C287.414 924.976 282.196 927.107 276.142 928.473C257.789 932.614 243.655 926.964 228.292 917.379C217.415 907.243 211.943 896.539 209.115 882.01L198.504 882.052L160.941 882.025C154.486 882.071 148.018 882.423 141.564 882.254C130.014 881.952 119.461 879.751 111.28 871.037C100.071 859.099 100.869 842.345 101.261 827.055Q101.028 791.869 101.207 756.684C101.51 749.069 101.275 741.308 101.05 733.686Z"/>
		<path fill="#E4911C" transform="translate(0 -456)" d="M101.207 756.684C106.817 757.079 111.871 757.155 115.803 761.769Q116.569 762.68 117.29 763.626C118.904 772.871 120.379 815.469 115.582 822.316C113.698 825.006 110.206 826.692 107.006 827.093C105.126 827.328 103.123 827.424 101.261 827.055Q101.028 791.869 101.207 756.684Z"/>
		<path fill="#230463" transform="translate(0 -456)" d="M198.504 882.052C198.643 862.131 203.855 843.763 218.319 829.482Q219.453 828.366 220.641 827.307Q221.828 826.248 223.067 825.249Q224.306 824.25 225.593 823.314Q226.879 822.377 228.211 821.506Q229.542 820.635 230.915 819.83Q232.288 819.026 233.699 818.29Q235.11 817.555 236.556 816.89Q238.002 816.225 239.479 815.633Q240.956 815.041 242.46 814.522Q243.965 814.004 245.493 813.56Q247.021 813.117 248.569 812.75Q250.118 812.382 251.682 812.092Q253.247 811.802 254.824 811.59Q256.401 811.378 257.987 811.244Q259.572 811.11 261.163 811.055Q262.753 811 264.344 811.023Q265.939 811.026 267.533 811.109Q269.126 811.191 270.713 811.352Q272.3 811.514 273.878 811.754Q275.455 811.994 277.018 812.312Q278.581 812.631 280.127 813.026Q281.673 813.422 283.197 813.893Q284.721 814.365 286.219 814.912Q287.718 815.459 289.188 816.08Q290.657 816.701 292.094 817.394Q293.531 818.087 294.932 818.85Q296.333 819.614 297.694 820.446Q299.055 821.278 300.373 822.177Q301.691 823.076 302.963 824.039Q304.235 825.003 305.457 826.028Q306.68 827.053 307.85 828.138Q309.019 829.222 310.134 830.364C324.24 844.85 328.705 862.269 328.489 882.03L318.875 882.021C319.101 880.003 319.154 877.858 319.091 875.829C318.648 861.68 312.258 846.086 301.858 836.355Q300.843 835.417 299.783 834.529Q298.724 833.642 297.623 832.806Q296.522 831.971 295.381 831.19Q294.241 830.409 293.064 829.684Q291.887 828.959 290.677 828.292Q289.466 827.625 288.225 827.018Q286.983 826.41 285.714 825.863Q284.444 825.317 283.15 824.832Q281.855 824.348 280.539 823.926Q279.223 823.505 277.887 823.148Q276.552 822.791 275.201 822.499Q273.85 822.207 272.487 821.981Q271.123 821.755 269.75 821.595Q268.377 821.435 266.998 821.342Q265.619 821.249 264.237 821.222Q262.856 821.196 261.474 821.237Q260.145 821.297 258.821 821.421Q257.497 821.545 256.18 821.734Q254.863 821.922 253.557 822.173Q252.251 822.425 250.959 822.74Q249.667 823.054 248.391 823.431Q247.115 823.808 245.859 824.246Q244.604 824.684 243.37 825.182Q242.137 825.68 240.929 826.238Q239.722 826.795 238.542 827.41Q237.363 828.025 236.215 828.697Q235.067 829.368 233.953 830.095Q232.838 830.821 231.761 831.6Q230.683 832.38 229.644 833.21Q228.605 834.041 227.608 834.921Q226.61 835.801 225.656 836.728Q224.703 837.655 223.795 838.627C212.459 850.905 208.506 865.631 209.115 882.01L198.504 882.052Z"/>
		<path fill="#203591" transform="translate(0 -456)" d="M209.115 882.01C208.506 865.631 212.459 850.905 223.795 838.627Q224.703 837.655 225.656 836.728Q226.61 835.801 227.608 834.921Q228.605 834.041 229.644 833.21Q230.683 832.38 231.761 831.6Q232.838 830.821 233.953 830.095Q235.067 829.368 236.215 828.697Q237.363 828.025 238.542 827.41Q239.722 826.795 240.929 826.238Q242.137 825.68 243.37 825.182Q244.604 824.684 245.859 824.246Q247.115 823.808 248.391 823.431Q249.667 823.054 250.959 822.74Q252.251 822.425 253.557 822.173Q254.863 821.922 256.18 821.734Q257.497 821.545 258.821 821.421Q260.145 821.297 261.474 821.237Q262.856 821.196 264.237 821.222Q265.619 821.249 266.998 821.342Q268.377 821.435 269.75 821.595Q271.123 821.755 272.487 821.981Q273.85 822.207 275.201 822.499Q276.552 822.791 277.887 823.148Q279.223 823.505 280.539 823.926Q281.856 824.348 283.15 824.832Q284.444 825.317 285.714 825.863Q286.983 826.41 288.225 827.018Q289.466 827.625 290.677 828.292Q291.887 828.959 293.064 829.684Q294.241 830.409 295.381 831.19Q296.522 831.971 297.623 832.806Q298.724 833.642 299.783 834.529Q300.843 835.417 301.858 836.355C312.258 846.086 318.648 861.68 319.091 875.829C319.154 877.858 319.101 880.003 318.875 882.021C315.079 897.394 310.675 906.551 299.175 917.647C296.989 918.524 294.673 920.391 292.646 921.671C287.414 924.976 282.196 927.107 276.142 928.473C257.789 932.614 243.655 926.964 228.292 917.379C217.415 907.243 211.943 896.539 209.115 882.01Z"/>
		<path fill="#E8E4E2" transform="translate(0 -456)" d="M263.35 848.703C268.228 848.677 272.921 849.74 277.175 852.182Q277.745 852.514 278.298 852.874Q278.85 853.234 279.385 853.621Q279.919 854.008 280.434 854.421Q280.948 854.833 281.442 855.271Q281.936 855.708 282.407 856.17Q282.879 856.631 283.327 857.115Q283.775 857.599 284.199 858.105Q284.622 858.611 285.021 859.137Q285.419 859.663 285.791 860.207Q286.162 860.752 286.507 861.315Q286.851 861.878 287.168 862.456Q287.484 863.035 287.771 863.629Q288.059 864.223 288.317 864.83Q288.574 865.438 288.802 866.057Q289.029 866.676 289.226 867.306Q289.423 867.935 289.588 868.574Q289.764 869.24 289.906 869.915Q290.048 870.589 290.156 871.27Q290.264 871.951 290.337 872.636Q290.411 873.322 290.449 874.01Q290.488 874.698 290.492 875.387Q290.495 876.076 290.464 876.765Q290.433 877.454 290.367 878.14Q290.301 878.826 290.201 879.508Q290.1 880.19 289.966 880.866Q289.831 881.542 289.662 882.21Q289.493 882.878 289.291 883.537Q289.088 884.196 288.853 884.844Q288.617 885.491 288.349 886.126Q288.081 886.762 287.782 887.382Q287.482 888.003 287.151 888.608Q286.821 889.213 286.46 889.8C281.628 897.595 274.484 900.557 265.992 902.598C259.509 902.248 253.638 901.233 248.177 897.393C242.527 893.42 238.763 887.06 237.652 880.275C236.475 873.08 238.197 865.351 242.644 859.532C247.9 852.656 255.145 849.94 263.35 848.703Z"/>
		<path fill="#6083C5" transform="translate(0 -456)" d="M101.24 564.622C101.947 555.072 107.037 546.58 113.964 540.187C121.86 532.899 131.92 528.63 142.554 527.42C151.033 526.455 159.907 526.959 168.44 526.986L209.169 527.02L349.793 527.001L580.946 527.024C622.003 527.025 663.155 525.663 704.191 527.37C729.609 532.71 739.223 545.273 752.989 566.02C753.203 567.297 752.907 568.281 752.592 569.504C754.556 576.256 766.316 595.228 770.287 602.56L813.181 682.677C829.03 690.815 845.199 698.468 861.226 706.265C877.364 714.117 896.36 721.334 909.675 733.566C916.93 740.232 921.878 748.654 924.832 758.021C926.379 762.925 927.316 767.924 928.422 772.934C928.674 775.302 929.049 777.714 929.079 780.093C930.461 792.057 930.798 804.079 931.874 816.057L932.189 822.123C933.271 835.274 937.668 865.475 929.075 875.85C925.509 880.155 920.028 882.113 914.584 882.504C908.663 882.929 882.485 883.483 879.064 880.476C878.865 880.301 878.675 880.116 878.48 879.936C874.765 878.962 871.066 879.161 867.267 879.268C863.618 895.538 859.876 905.228 848.013 917.258C845.509 918.281 842.773 920.591 840.48 922.063C834.248 926.063 827.152 928.619 819.84 929.836C803.06 932.629 788.951 926.345 775.588 916.743C765.529 907.845 761.176 894.921 757.778 882.394C754 882.226 750.296 882.156 746.518 882.34C707.018 882.817 667.458 882.415 627.952 882.381C568.013 881.386 507.988 882.715 448.035 882.282L448.38 782.378C448.429 774.924 449.793 738.639 448.147 734.08C449.414 730.148 447.871 717.31 448.304 712.112C431.882 711.625 415.342 712.041 398.915 712.149L326.332 712.377L101.052 711.977Q101.859 640.215 101.137 568.452L101.24 564.622Z"/>
		<path fill="#230463" transform="translate(0 -456)" d="M650.61 713.759C658.514 713.483 679.079 711.483 685.187 716.531C685.92 717.137 686.499 718.05 686.486 719.018C686.462 720.736 685.161 722.424 684.036 723.652C682.686 725.126 680.967 724.954 679.125 724.982C670.044 725.317 659.452 726.361 650.501 724.828C647.776 724.362 645.37 723.785 643.701 721.453C643.544 720.067 643.47 719.375 644.219 718.153C645.93 715.362 647.524 714.475 650.61 713.759Z"/>
		<path fill="#E8E4E2" transform="translate(0 -456)" d="M932.189 822.123C931.807 822.974 932.128 822.607 931.04 823.033C919.809 821.768 907.761 819.629 898.673 812.375C893.923 808.585 890.122 803.452 889.544 797.237C889.047 791.887 890.568 786.844 894.16 782.845C902.432 773.635 916.992 773.659 928.422 772.934C928.674 775.302 929.049 777.714 929.079 780.093C930.461 792.057 930.798 804.079 931.874 816.057L932.189 822.123Z"/>
		<path fill="#E4911C" transform="translate(0 -456)" d="M931.874 816.057C928.899 816.101 925.631 814.893 923.137 813.317C919.013 810.711 916.161 806.279 915.133 801.544C914.086 796.719 914.938 791.411 917.635 787.254C920.392 783.005 924.273 781.167 929.079 780.093C930.461 792.057 930.798 804.079 931.874 816.057Z"/>
		<path fill="#230463" transform="translate(0 -456)" d="M746.518 882.34C746.506 882.236 746.489 882.133 746.482 882.029C745.28 864.547 753.418 844.254 765.109 831.457Q766.182 830.277 767.312 829.152Q768.443 828.027 769.628 826.96Q770.812 825.892 772.048 824.885Q773.285 823.877 774.569 822.932Q775.854 821.987 777.184 821.107Q778.514 820.227 779.886 819.414Q781.258 818.601 782.668 817.858Q784.079 817.114 785.525 816.441Q786.971 815.768 788.448 815.167Q789.925 814.567 791.431 814.04Q792.936 813.514 794.466 813.063Q795.995 812.612 797.545 812.237Q799.096 811.862 800.662 811.565Q802.229 811.267 803.809 811.048Q805.388 810.829 806.977 810.688Q808.565 810.548 810.159 810.486Q811.839 810.434 813.519 810.464Q815.199 810.494 816.876 810.606Q818.553 810.719 820.222 810.913Q821.891 811.107 823.549 811.383Q825.207 811.659 826.849 812.016Q828.491 812.373 830.114 812.809Q831.736 813.246 833.336 813.762Q834.935 814.278 836.508 814.871Q838.08 815.465 839.621 816.135Q841.162 816.805 842.669 817.549Q844.175 818.294 845.644 819.111Q847.112 819.928 848.539 820.817Q849.965 821.705 851.346 822.662Q852.728 823.62 854.06 824.643Q855.393 825.667 856.674 826.755Q857.955 827.843 859.181 828.992C870.581 839.753 879.849 858.64 879.995 874.437C880.014 876.504 879.969 878.367 878.48 879.936C874.765 878.962 871.066 879.161 867.267 879.268C866.279 861.639 863.027 845.958 849.306 833.649C838.168 823.657 823.943 819.121 809.099 820.045Q807.776 820.129 806.46 820.278Q805.143 820.427 803.835 820.641Q802.527 820.855 801.231 821.134Q799.935 821.412 798.655 821.755Q797.375 822.097 796.113 822.502Q794.851 822.907 793.611 823.374Q792.37 823.841 791.155 824.369Q789.939 824.896 788.751 825.483Q787.563 826.071 786.405 826.716Q785.248 827.361 784.123 828.062Q782.999 828.764 781.911 829.521Q780.823 830.277 779.773 831.086Q778.723 831.895 777.715 832.755Q776.707 833.616 775.742 834.524Q774.778 835.433 773.859 836.389Q772.941 837.344 772.071 838.344C763.748 847.852 759.46 859.032 758.372 871.544C758.067 875.053 758.354 878.973 757.778 882.394C754 882.226 750.296 882.156 746.518 882.34Z"/>
		<path fill="#203591" transform="translate(0 -456)" d="M757.778 882.394C758.354 878.973 758.067 875.053 758.372 871.544C759.46 859.032 763.748 847.852 772.071 838.344Q772.941 837.344 773.859 836.389Q774.778 835.433 775.742 834.524Q776.707 833.616 777.715 832.755Q778.723 831.895 779.773 831.086Q780.823 830.277 781.911 829.521Q782.999 828.764 784.123 828.063Q785.248 827.361 786.405 826.716Q787.563 826.071 788.751 825.483Q789.939 824.896 791.155 824.369Q792.37 823.841 793.611 823.374Q794.851 822.907 796.113 822.502Q797.375 822.097 798.655 821.755Q799.935 821.412 801.231 821.134Q802.527 820.855 803.835 820.641Q805.143 820.427 806.46 820.278Q807.776 820.129 809.099 820.045C823.943 819.121 838.168 823.657 849.306 833.649C863.027 845.958 866.279 861.639 867.267 879.268C863.618 895.538 859.876 905.228 848.013 917.258C845.509 918.281 842.773 920.591 840.48 922.063C834.248 926.063 827.152 928.619 819.84 929.836C803.06 932.629 788.951 926.345 775.588 916.743C765.529 907.845 761.176 894.921 757.778 882.394Z"/>
		<path fill="#E8E4E2" transform="translate(0 -456)" d="M811.522 848.699C816.489 848.703 821.101 849.727 825.445 852.156Q826.008 852.472 826.555 852.816Q827.101 853.16 827.63 853.531Q828.159 853.902 828.668 854.299Q829.177 854.696 829.666 855.118Q830.155 855.54 830.622 855.987Q831.089 856.433 831.533 856.902Q831.977 857.371 832.396 857.862Q832.816 858.353 833.211 858.864Q833.605 859.375 833.974 859.906Q834.342 860.436 834.683 860.985Q835.024 861.533 835.338 862.098Q835.651 862.663 835.935 863.243Q836.22 863.822 836.475 864.416Q836.729 865.009 836.954 865.615Q837.179 866.22 837.373 866.836Q837.567 867.452 837.73 868.077Q837.894 868.707 838.027 869.345Q838.16 869.982 838.261 870.625Q838.362 871.269 838.432 871.916Q838.501 872.563 838.538 873.214Q838.576 873.864 838.581 874.515Q838.586 875.166 838.559 875.817Q838.532 876.467 838.473 877.116Q838.414 877.764 838.323 878.409Q838.233 879.054 838.11 879.693Q837.987 880.333 837.833 880.965Q837.679 881.598 837.494 882.222Q837.309 882.847 837.094 883.461Q836.878 884.076 836.632 884.679Q836.387 885.282 836.112 885.872Q835.837 886.462 835.533 887.038Q835.229 887.614 834.897 888.174C830.209 896.193 822.914 899.515 814.358 901.649C808.721 901.301 803.439 900.298 798.572 897.229Q798.024 896.887 797.493 896.518Q796.963 896.148 796.452 895.753Q795.941 895.358 795.45 894.937Q794.96 894.516 794.491 894.072Q794.022 893.627 793.576 893.159Q793.131 892.691 792.709 892.202Q792.287 891.712 791.891 891.202Q791.494 890.692 791.124 890.162Q790.753 889.633 790.41 889.085Q790.066 888.538 789.751 887.974Q789.436 887.41 789.149 886.831Q788.862 886.252 788.605 885.659Q788.348 885.066 788.121 884.461Q787.894 883.856 787.698 883.24Q787.502 882.625 787.337 882Q787.172 881.375 787.038 880.743Q786.902 880.074 786.8 879.399Q786.698 878.724 786.629 878.044Q786.561 877.365 786.527 876.683Q786.493 876.001 786.493 875.318Q786.493 874.635 786.528 873.953Q786.562 873.271 786.631 872.592Q786.7 871.913 786.802 871.238Q786.905 870.562 787.041 869.893Q787.178 869.224 787.347 868.563Q787.517 867.902 787.72 867.25Q787.922 866.598 788.158 865.957Q788.393 865.315 788.66 864.687Q788.927 864.059 789.225 863.444Q789.523 862.83 789.852 862.232Q790.18 861.633 790.539 861.052Q790.897 860.471 791.284 859.908C796.281 852.792 803.336 850.055 811.522 848.699Z"/>
		<path fill="#203591" transform="translate(0 -456)" d="M704.191 527.37C729.609 532.71 739.223 545.273 752.989 566.02C753.203 567.297 752.907 568.281 752.592 569.504C754.556 576.256 766.316 595.228 770.287 602.56L813.181 682.677L814.252 688.955C807.538 690.027 800.222 689.524 793.428 689.517L760.682 689.494Q699.591 689.262 638.502 689.788L638.991 569.521Q600.149 568.601 561.298 568.984L445.335 568.983L101.137 568.452L101.24 564.622C105.173 565.89 134.484 565.024 140.676 565.022L252.652 564.999L574.013 565.016Q640.805 565.243 707.595 564.786C720.386 564.705 733.167 565.033 745.96 564.799C740.177 556.021 732.276 546.706 723.915 540.38C718.119 535.994 708.223 533.452 704.191 527.37Z"/>
		<path fill="#A0BFDF" transform="translate(0 -456)" d="M645.418 569.604C659.225 571.343 678.638 570.242 692.934 570.236C710.179 570.229 727.742 571.232 744.934 570.042C760.354 597.323 775.068 625.267 789.536 653.067C794.837 663.253 801.448 673.148 805.858 683.745C799.928 684.427 793.564 684.024 787.59 684.019L755.317 684.001L644.993 684.014L645.001 608.911C644.978 595.904 643.775 582.528 645.418 569.604Z"/>
		<path fill="#5F3267" transform="translate(0 -456)" d="M175.807 600.241L298.965 600.504Q314.772 600.574 330.578 600.443C339.704 600.312 349.208 599.642 358.277 600.824C363.416 601.493 368.311 603.381 372.069 607.048C382.146 616.879 380.098 633.682 380.017 646.409C379.973 653.283 380.145 660.157 380.141 667.031C380.136 675.721 378.976 685.354 372.368 691.701C364.817 698.953 354.886 698.287 345.25 698.185L221.716 697.98L187.477 698.031C179.018 698.104 170.309 698.683 161.904 697.662C157.012 697.067 152.791 695.881 149.044 692.486C142.75 686.782 140.873 679.49 140.472 671.347C139.833 658.393 139.071 630.469 141.628 618.811C142.498 614.846 144.172 610.606 147.036 607.646C154.355 600.083 166.134 600.45 175.807 600.241Z"/>
		<path fill="#A0BFDF" transform="translate(0 -456)" d="M369.747 610.519C371.784 612.783 373.862 614.968 374.779 617.954C377.342 626.302 376.43 661.819 375.903 672.058C375.573 678.455 374.541 684.219 369.453 688.65C366.928 690.849 363.791 692.753 360.562 693.651C351.277 696.235 323.42 694.755 312.495 694.488C316.39 687.921 321.523 682.409 325.882 676.195C334.843 663.422 343.331 650.231 352.081 637.302C357.973 628.598 364.816 619.773 369.747 610.519Z"/>
		<path fill="#A0BFDF" transform="translate(0 -456)" d="M153.82 691.014C152.573 690.373 151.374 689.383 150.382 688.399C143.958 682.027 144.147 673.608 143.937 665.186C143.673 654.619 142.614 627.756 145.191 618.928C146.199 615.475 148.189 612.218 150.724 609.672C153.298 607.087 156.148 605.769 159.664 604.926C166.838 603.204 175.026 603.926 182.374 603.936L211.87 604.005C200.264 620.945 189.181 638.167 178.005 655.396C170.212 667.411 162.576 679.663 153.82 691.014Z"/>
		<path fill="#E8E4E2" transform="translate(0 -456)" d="M211.87 604.005L267.164 603.993C254.97 628.243 235.559 654.319 220.133 677.02C216.247 682.739 209.955 688.214 207.447 694.575C198.251 694.206 188.924 694.506 179.72 694.639C173.73 694.726 167.582 695.125 161.661 694.051C158.736 693.521 156.364 692.544 153.82 691.014C162.576 679.663 170.212 667.411 178.005 655.396C189.181 638.167 200.264 620.945 211.87 604.005Z"/>
		<path fill="#E8E4E2" transform="translate(0 -456)" d="M320.385 604.193C331.704 603.748 349.682 601.933 360.298 605.246C363.871 606.361 366.81 608.226 369.747 610.519C364.816 619.773 357.973 628.598 352.081 637.302C343.331 650.231 334.843 663.422 325.882 676.195C321.523 682.409 316.39 687.921 312.495 694.488L256.054 694.574C240.01 695.213 223.496 695.099 207.447 694.575C209.955 688.214 216.247 682.739 220.133 677.02C235.559 654.319 254.97 628.243 267.164 603.993C284.198 603.973 303.624 603.045 320.385 604.193Z"/>
		<path fill="#A0BFDF" transform="translate(0 -456)" d="M267.164 603.993C284.198 603.973 303.624 603.045 320.385 604.193C320.237 604.25 320.091 604.315 319.94 604.363C319.054 604.643 318.196 604.649 317.275 604.701C312.161 611.292 307.843 618.635 303.309 625.633Q292.812 641.753 282.025 657.681Q273.812 669.432 265.335 680.994C262.189 685.341 258.504 689.817 256.054 694.574C240.01 695.213 223.496 695.099 207.447 694.575C209.955 688.214 216.247 682.739 220.133 677.02C235.559 654.319 254.97 628.243 267.164 603.993Z"/>
		<path fill="#6083C5" transform="translate(0 -456)" d="M101.24 564.622C101.947 555.072 107.037 546.58 113.964 540.187C121.86 532.899 131.92 528.63 142.554 527.42C151.033 526.455 159.907 526.959 168.44 526.986L209.169 527.02L349.793 527.001L580.946 527.024C622.003 527.025 663.155 525.663 704.191 527.37C708.223 533.452 718.119 535.994 723.915 540.38C732.276 546.706 740.177 556.021 745.96 564.799C733.167 565.033 720.386 564.705 707.595 564.786Q640.805 565.243 574.013 565.016L252.652 564.999L140.676 565.022C134.484 565.024 105.173 565.89 101.24 564.622Z"/>
		<path fill="#203591" transform="translate(0 -456)" d="M448.304 712.112C448.593 704.425 448.034 696.578 448.017 688.865L447.962 630.979C447.962 621.283 446.865 609.988 448.767 600.517C449.743 595.657 451.68 591.616 455.404 588.238Q456.024 587.671 456.684 587.152Q457.344 586.633 458.041 586.164Q458.737 585.695 459.467 585.278Q460.196 584.862 460.954 584.501Q461.712 584.139 462.495 583.835Q463.277 583.53 464.081 583.284Q464.884 583.039 465.703 582.853Q466.522 582.667 467.352 582.542C474.688 581.511 482.768 582.127 490.165 582.193L520.923 582.221L574.713 582.214C585.744 582.215 596.941 581.83 607.945 582.636C614.484 583.114 619.318 585.497 623.633 590.502C626.96 594.36 627.983 600.067 628.33 605.048C629.303 619.035 628.518 633.583 628.321 647.617L627.982 708.936L627.988 824.305C627.987 843.615 628.524 863.095 627.952 882.381C568.013 881.386 507.988 882.715 448.035 882.282L448.38 782.378C448.429 774.924 449.793 738.639 448.147 734.08C449.414 730.148 447.871 717.31 448.304 712.112Z"/>
		<path fill="#A0BFDF" transform="translate(0 -456)" d="M483.152 595.245Q509.46 595.126 535.767 595.327L535.841 870.518L517.436 870.503L464 870.499L463.981 696.938L463.985 643.108C463.987 632.357 463.525 621.354 464.444 610.638C464.793 606.566 465.132 602.828 468.142 599.745C472.154 595.635 477.796 595.395 483.152 595.245Z"/>
		<path fill="#A0BFDF" transform="translate(0 -456)" d="M540.464 595.249C551.333 595.257 562.211 595.335 573.079 595.195C580.93 595.095 589.009 594.519 596.829 595.339C600.207 595.694 603.924 596.347 606.848 598.149C610.209 600.219 612.528 604.923 613.196 608.691C614.989 618.797 613.991 630.165 613.829 640.397Q613.681 656.903 613.758 673.409L613.506 831.623C613.507 837.112 612.731 866.478 613.634 869.08C613.684 869.224 613.764 869.355 613.83 869.493L613.396 868.802C613.334 869.698 613.428 869.728 612.873 870.507L538.492 870.494L538.492 687.015C538.499 658.088 537.838 629 538.427 600.088C538.458 598.525 538.349 596.902 539.116 595.495L540.464 595.249Z"/>
	</g>
</svg>
