<?xml version="1.0" encoding="utf-8" ?>
<svg xmlns="http://www.w3.org/2000/svg" xmlns:xlink="http://www.w3.org/1999/xlink" width="3792" height="3792" >
	<path transform="scale(7.40625 7.40625)" d="M141.075 144.346C153.582 121.776 188.951 72.3433 214.927 69.5999C256.24 65.5222 240.002 137.935 234.556 159.161C223.569 201.99 185.903 246.606 151.332 271.998C147.324 274.942 140.666 280.505 136.488 282.207C111.759 278.091 84.3352 273.491 62.7553 259.942C65.9574 255.569 68.7096 250.765 71.706 246.236L88.2212 221.569C90.8748 217.536 93.7687 211.81 96.9069 208.297C105.011 213.139 112.917 218.367 120.931 223.361C130.033 229.022 139.147 235.033 147.722 241.47C153.465 235.064 159.726 229.345 165.075 222.541C158.739 218.574 152.885 213.79 146.549 209.762L126.565 197.218C121.616 194.11 116.53 191.057 111.971 187.391C116.68 180.092 121.569 172.895 126.37 165.654C145.54 176.586 164.156 188.53 183.066 199.903C186.305 192.317 191.766 187.039 196.099 180.23C184.447 169.951 154.948 152.206 141.075 144.346Z"/>
	<path transform="scale(7.40625 7.40625)" d="M376.045 282.403C362.384 275.225 340.755 258.294 330.711 247.615C314.03 229.878 290.651 192.829 282.158 169.922C275.121 150.945 267.004 107.88 271.105 88.248C273.352 77.4932 281.196 70.8395 292.147 69.5945C322.63 66.5139 355.256 119.614 371.875 143.351C356.133 152.128 327.044 166.022 313.759 177.286C318.368 184.24 325.586 189.56 330.503 196.68C342.26 187.521 371.124 173.034 385.307 165.664C390.565 171.061 395.034 180.69 399.644 187.153C382.125 198.286 360.363 209.23 344.454 222.034C350.403 228.372 355.499 235.471 361.92 241.415C368.926 235.672 376.838 231.057 384.529 226.301C393.334 221.374 402.686 214.6 411.387 210.218C416.587 207.598 417.841 214.001 420.504 218.003L437.943 244.17C441.434 249.4 444.873 255.152 448.963 259.927L449.207 260.209C445.823 261.331 442.555 263.147 439.289 264.592C419.202 273.483 397.42 277.855 376.045 282.403Z"/>
	<path transform="scale(7.40625 7.40625)" d="M149.103 307.751C153.384 302.348 159.318 297.807 164.57 293.364L189.333 272.753C211.767 253.915 234.089 234.799 255.577 214.893C257.676 215.458 277.639 234.034 280.814 236.865C302.437 256.143 324.856 274.381 346.889 293.157C352.239 297.716 357.405 302.751 362.978 307.01C388.099 307.146 440.736 295.51 461.747 278.915C471.98 303.541 488.224 335.182 466.605 359.026C450.648 376.624 421.677 371.668 399.774 371.675L372.095 371.684C338.004 371.69 349.293 373.22 322.888 349.893L271.937 305.477C266.84 301.019 261.489 296.8 256.502 292.229C250.599 298.142 243.744 303.433 237.468 308.972L198.104 343.288C187.371 352.504 176.31 361.631 166.161 371.485C160.648 372.077 154.731 371.684 149.181 371.682L85.654 371.691C80.2662 371.693 74.4738 372.117 69.1313 371.51C53.6449 369.751 40.5864 357.571 36.3781 342.718C31.3821 325.085 40.661 295.701 49.8147 279.295C55.6808 282.151 61.0029 285.936 66.9801 288.669C88.5813 298.544 124.541 307.787 149.103 307.751Z"/>
</svg>
